HIERARCHY
ROOT Hips
{
	OFFSET 0.00000 0.00000 0.00000
	CHANNELS 6 Xposition Yposition Zposition Zrotation Yrotation Xrotation 
	JOINT LHipJoint
	{
		OFFSET 0 0 0
		CHANNELS 3 Zrotation Yrotation Xrotation
		JOINT LeftUpLeg
		{
			OFFSET 1.37590 -1.78394 0.89329
			CHANNELS 3 Zrotation Yrotation Xrotation
			JOINT LeftLeg
			{
				OFFSET 2.47928 -6.81178 0.00000
				CHANNELS 3 Zrotation Yrotation Xrotation
				JOINT LeftFoot
				{
					OFFSET 2.63345 -7.23535 0.00000
					CHANNELS 3 Zrotation Yrotation Xrotation
					JOINT LeftToeBase
					{
						OFFSET 0.23938 -0.65768 2.27012
						CHANNELS 3 Zrotation Yrotation Xrotation
						End Site
						{
							OFFSET 0.00000 -0.00000 1.18363
						}
					}
				}
			}
		}
	}
	JOINT RHipJoint
	{
		OFFSET 0 0 0
		CHANNELS 3 Zrotation Yrotation Xrotation
		JOINT RightUpLeg
		{
			OFFSET -1.33617 -1.78394 0.89329
			CHANNELS 3 Zrotation Yrotation Xrotation
			JOINT RightLeg
			{
				OFFSET -2.56922 -7.05888 0.00000
				CHANNELS 3 Zrotation Yrotation Xrotation
				JOINT RightFoot
				{
					OFFSET -2.56568 -7.04915 0.00000
					CHANNELS 3 Zrotation Yrotation Xrotation
					JOINT RightToeBase
					{
						OFFSET -0.27533 -0.75646 2.18105
						CHANNELS 3 Zrotation Yrotation Xrotation
						End Site
						{
							OFFSET -0.00000 -0.00000 1.15233
						}
					}
				}
			}
		}
	}
	JOINT LowerBack
	{
		OFFSET 0 0 0
		CHANNELS 3 Zrotation Yrotation Xrotation
		JOINT Spine
		{
			OFFSET 0.06190 2.15152 -0.00935
			CHANNELS 3 Zrotation Yrotation Xrotation
			JOINT Spine1
			{
				OFFSET 0.06334 2.15332 0.00872
				CHANNELS 3 Zrotation Yrotation Xrotation
				JOINT Neck
				{
					OFFSET 0 0 0
					CHANNELS 3 Zrotation Yrotation Xrotation
					JOINT Neck1
					{
						OFFSET -0.04202 1.66908 0.23524
						CHANNELS 3 Zrotation Yrotation Xrotation
						JOINT Head
						{
							OFFSET 0.07510 1.69357 -0.24440
							CHANNELS 3 Zrotation Yrotation Xrotation
							End Site
							{
								OFFSET 0.02556 1.71719 -0.11000
							}
						}
					}
				}
				JOINT LeftShoulder
				{
					OFFSET 0 0 0
					CHANNELS 3 Zrotation Yrotation Xrotation
					JOINT LeftArm
					{
						OFFSET 3.67168 1.26306 -0.41342
						CHANNELS 3 Zrotation Yrotation Xrotation
						JOINT LeftForeArm
						{
							OFFSET 4.68510 -0.00000 -0.00000
							CHANNELS 3 Zrotation Yrotation Xrotation
							JOINT LeftHand
							{
								OFFSET 3.39626 -0.00000 -0.00000
								CHANNELS 3 Zrotation Yrotation Xrotation
								JOINT LeftFingerBase
								{
									OFFSET 0 0 0
									CHANNELS 3 Zrotation Yrotation Xrotation
									JOINT LeftHandIndex1
									{
										OFFSET 0.48608 -0.00000 -0.00000
										CHANNELS 3 Zrotation Yrotation Xrotation
										End Site
										{
											OFFSET 0.39189 -0.00000 -0.00000
										}
									}
								}
								JOINT LThumb
								{
									OFFSET 0 0 0
									CHANNELS 3 Zrotation Yrotation Xrotation
									End Site
									{
										OFFSET 0.39787 -0.00000 0.39787
									}
								}
							}
						}
					}
				}
				JOINT RightShoulder
				{
					OFFSET 0 0 0
					CHANNELS 3 Zrotation Yrotation Xrotation
					JOINT RightArm
					{
						OFFSET -3.04136 1.42992 -0.76390
						CHANNELS 3 Zrotation Yrotation Xrotation
						JOINT RightForeArm
						{
							OFFSET -5.55576 -0.00000 -0.00000
							CHANNELS 3 Zrotation Yrotation Xrotation
							JOINT RightHand
							{
								OFFSET -3.32774 -0.00000 -0.00000
								CHANNELS 3 Zrotation Yrotation Xrotation
								JOINT RightFingerBase
								{
									OFFSET 0 0 0
									CHANNELS 3 Zrotation Yrotation Xrotation
									JOINT RightHandIndex1
									{
										OFFSET -0.50763 -0.00000 -0.00000
										CHANNELS 3 Zrotation Yrotation Xrotation
										End Site
										{
											OFFSET -0.40926 -0.00000 -0.00000
										}
									}
								}
								JOINT RThumb
								{
									OFFSET 0 0 0
									CHANNELS 3 Zrotation Yrotation Xrotation
									End Site
									{
										OFFSET -0.41551 -0.00000 0.41551
									}
								}
							}
						}
					}
				}
			}
		}
	}
}
MOTION
Frames: 16
Frame Time: .0083333
32.9011 17.7139 7.3649 0 0 0 0 0 0 -21 0 0 0 0 0 0 0 0 0 0 0 0 0 0 21 0 0 0 0 0 0 0 0 0 0 0 0 0 0 0 0 0 0 0 0 0 0 -16 0 0 21 0 0 11 0 0 0 -8 0 0 0 0 0 0 0 0 0 0 0 0 0 0 0 0 0 0 0 0 8 0 0 0 0 0 0 0 0 0 0 0 0 0 0 0 0 0
32.9011 17.7139 7.3649 -127.9860 -86.2176 134.9610 0.0000 0.0000 0.0000 -18.1370 -8.9552 -7.2167 0.7722 5.6112 15.6603 0.4073 -1.3249 -11.6668 0.0091 0.6152 1.6906 0.0000 0.0000 0.0000 18.7085 2.4681 -31.7520 -11.2207 -18.0414 63.4963 0.8295 -16.1525 -9.2332 -0.2628 -3.2977 9.1088 -0.0354 -1.2168 1.2977 1.2189 -1.6112 -1.1113 1.3148 -0.7995 -1.8297 -14.7010 -13.1907 -7.9809 13.2709 -17.7416 9.1077 4.7618 -8.4679 6.5817 0.0000 -0.0000 0.0000 -90.8821 -0.3367 32.9255 29.7741 -40.6990 -11.2620 -0.0000 -0.0000 18.6732 15.1372 23.0896 6.0558 -7.1250 0.0000 -0.0000 -14.4853 53.2249 -2.9800 0.0000 -0.0000 0.0000 83.2396 1.4989 43.4417 -40.9422 48.6183 -19.1432 0.0000 0.0000 2.2267 -8.4858 -27.0700 3.8842 7.1250 -0.0000 -0.0000 23.2865 -55.7469 -6.3895
32.7869 17.7172 7.3708 -129.0190 -86.3988 135.9710 0.0000 0.0000 0.0000 -18.4937 -8.7655 -6.4787 0.7215 5.4276 15.1323 0.4156 -1.3998 -11.7704 0.0086 0.5980 1.6431 0.0000 0.0000 0.0000 18.4261 2.6677 -32.5751 -10.8708 -17.8713 62.3612 0.7746 -15.8822 -10.2684 -0.2063 -2.9243 8.0682 -0.2195 -1.3093 1.4196 1.2553 -1.7370 -1.1950 1.4635 -0.8588 -1.9748 -14.6554 -13.1495 -8.2249 13.2082 -17.6654 9.2570 4.7299 -8.4205 6.6490 -0.0000 0.0000 0.0000 -90.5296 -0.3709 34.1347 31.6261 -42.2470 -12.4887 -0.0000 -0.0000 17.8753 14.9896 22.7389 5.9088 -7.1250 0.0000 -0.0000 -14.4709 52.8541 -2.8442 -0.0000 0.0000 0.0000 83.0726 1.2933 43.5073 -43.1203 49.8137 -20.7926 0.0000 0.0000 1.8713 -8.1384 -27.0099 3.7159 7.1250 -0.0000 -0.0000 23.5884 -55.6238 -6.4072
32.6743 17.7194 7.3740 -129.2430 -86.4861 136.2200 0.0000 0.0000 0.0000 -18.6560 -8.4462 -5.8505 0.6725 5.2440 14.6057 0.4239 -1.5832 -11.8502 0.0089 0.6107 1.6781 0.0000 0.0000 0.0000 18.2985 2.9241 -33.3741 -10.4751 -17.6685 61.0648 0.7538 -15.8756 -10.9897 -0.1690 -2.6480 7.3002 -0.2888 -1.4193 1.3421 1.3188 -1.8851 -1.2049 1.5697 -0.9319 -1.9332 -14.5532 -13.1265 -8.4887 13.0495 -17.5910 9.3233 4.6600 -8.3772 6.6789 0.0000 -0.0000 0.0000 -90.1568 -0.5006 35.2320 33.6252 -43.8051 -13.8530 -0.0000 -0.0000 17.2410 14.9793 23.2423 6.0273 -7.1250 0.0000 -0.0000 -14.7124 53.3463 -3.0725 0.0000 -0.0000 0.0000 82.9235 1.2827 43.6792 -45.2712 50.9007 -22.4490 0.0000 0.0000 1.6165 -8.1094 -27.1692 3.7226 7.1250 -0.0000 -0.0000 23.7230 -55.7632 -6.5289
32.5643 17.7173 7.3778 -131.0220 -86.6138 137.9820 0.0000 0.0000 0.0000 -18.9721 -8.2775 -5.1958 0.6355 5.1004 14.1952 0.4362 -1.6063 -12.0219 0.0088 0.6058 1.6648 0.0000 0.0000 0.0000 18.0601 3.1778 -33.9805 -9.9716 -17.3939 59.3935 0.7421 -15.9615 -11.6783 -0.1550 -2.5371 6.9924 -0.4869 -1.5371 1.4920 1.3866 -2.0452 -1.3556 1.7626 -1.0068 -2.1583 -14.6319 -12.9898 -8.3519 13.0722 -17.4143 9.3084 4.7138 -8.3001 6.6357 -0.0000 0.0000 0.0000 -89.8432 -0.4294 36.1277 35.5750 -45.2184 -15.2200 -0.0000 -0.0000 16.7444 14.8910 23.3232 6.0099 -7.1250 0.0000 -0.0000 -14.8378 53.4094 -3.1227 -0.0000 0.0000 0.0000 82.7697 1.0521 43.8300 -47.4445 51.9114 -24.1478 0.0000 0.0000 1.4602 -8.6035 -26.8268 3.9061 7.1250 -0.0000 -0.0000 23.0109 -55.5475 -6.1942
32.4534 17.7161 7.3811 -132.2300 -86.7228 139.2000 0.0000 0.0000 0.0000 -19.2192 -8.0584 -4.5753 0.5975 4.9486 13.7619 0.4475 -1.6891 -12.1643 0.0084 0.5933 1.6304 0.0000 0.0000 0.0000 17.8600 3.4378 -34.6227 -9.4956 -17.1163 57.7888 0.7180 -15.9538 -12.3247 -0.1371 -2.3866 6.5754 -0.6171 -1.6319 1.5784 1.4375 -2.1741 -1.4253 1.8962 -1.0678 -2.2676 -14.5841 -12.9428 -8.5319 12.9953 -17.3272 9.3853 4.6841 -8.2520 6.6664 0.0000 -0.0000 0.0000 -89.4791 -0.5787 37.0186 37.5942 -46.5781 -16.6702 -0.0000 -0.0000 16.2648 14.8234 23.4615 6.0148 -7.1250 0.0000 -0.0000 -14.9702 53.5325 -3.1971 0.0000 -0.0000 0.0000 82.6599 0.9708 43.8982 -49.7476 52.8932 -25.9727 0.0000 0.0000 1.2301 -8.8915 -26.5561 4.0009 7.1250 -0.0000 -0.0000 22.5529 -55.3551 -5.9538
32.3430 17.7133 7.3837 -133.6010 -86.8130 140.5930 0.0000 0.0000 0.0000 -19.4465 -7.8354 -3.9941 0.5633 4.8073 13.3597 0.4599 -1.7696 -12.3203 0.0079 0.5728 1.5739 0.0000 0.0000 0.0000 17.6720 3.7196 -35.1988 -8.9819 -16.7960 56.0275 0.6993 -15.9765 -12.8670 -0.1263 -2.2909 6.3104 -0.7356 -1.7204 1.6539 1.4866 -2.2947 -1.4889 2.0212 -1.1247 -2.3644 -14.5419 -12.8990 -8.7125 12.9278 -17.2448 9.4578 4.6576 -8.2060 6.6981 0.0000 -0.0000 0.0000 -89.1137 -0.7964 37.8217 39.6181 -47.8420 -18.1556 -0.0000 -0.0000 15.8778 14.7610 23.6496 6.0334 -7.1250 0.0000 -0.0000 -15.1221 53.7051 -3.2952 0.0000 -0.0000 0.0000 82.5807 0.9219 43.9293 -52.1071 53.8108 -27.8659 0.0000 0.0000 1.0148 -9.1858 -26.2339 4.0886 7.1250 -0.0000 -0.0000 22.0604 -55.1150 -5.6827
32.2329 17.7090 7.3854 -135.0890 -86.8866 142.1140 0.0000 0.0000 0.0000 -19.6581 -7.6199 -3.4425 0.5328 4.6771 12.9900 0.4736 -1.8415 -12.4934 0.0071 0.5440 1.4947 0.0000 0.0000 0.0000 17.4944 4.0209 -35.6978 -8.4304 -16.4268 54.0984 0.6847 -16.0082 -13.3049 -0.1206 -2.2389 6.1664 -0.8421 -1.8011 1.7259 1.5305 -2.4047 -1.5469 2.1338 -1.1765 -2.4542 -14.4948 -12.8629 -8.9086 12.8612 -17.1726 9.5388 4.6281 -8.1639 6.7362 0.0000 -0.0000 0.0000 -88.7409 -1.0782 38.5531 41.6432 -49.0139 -19.6708 -0.0000 -0.0000 15.5725 14.6927 23.9021 6.0644 -7.1250 0.0000 -0.0000 -15.3127 53.9390 -3.4267 0.0000 -0.0000 0.0000 82.5404 0.8960 43.9127 -54.5279 54.6661 -29.8305 0.0000 0.0000 0.7898 -9.4003 -25.9272 4.1401 7.1250 -0.0000 -0.0000 21.6604 -54.8723 -5.4417
32.1224 17.7032 7.3859 -136.3830 -86.9524 143.4590 0.0000 0.0000 0.0000 -19.8409 -7.4092 -2.9301 0.5057 4.5588 12.6542 0.4885 -1.9268 -12.6782 0.0063 0.5126 1.4086 0.0000 0.0000 0.0000 17.3366 4.3270 -36.1220 -7.8437 -16.0031 51.9978 0.6746 -16.0447 -13.6329 -0.1199 -2.2327 6.1492 -0.9285 -1.8787 1.7540 1.5689 -2.5101 -1.5797 2.2272 -1.2268 -2.4940 -14.4348 -12.8392 -9.1339 12.7966 -17.1142 9.6110 4.5937 -8.1268 6.7776 -0.0000 0.0000 0.0000 -88.3538 -1.4406 39.2241 43.6823 -50.1064 -21.2229 -0.0000 -0.0000 15.3598 14.5540 24.3632 6.1131 -7.1250 0.0000 -0.0000 -15.6810 54.3622 -3.6760 -0.0000 0.0000 0.0000 82.5443 0.9267 43.8437 -57.0027 55.4568 -31.8594 0.0000 0.0000 0.5323 -9.4512 -25.6753 4.1253 7.1250 -0.0000 -0.0000 21.4578 -54.6483 -5.2677
32.0112 17.6959 7.3851 -137.5310 -87.0276 144.6750 0.0000 0.0000 0.0000 -20.0114 -7.2040 -2.4506 0.4814 4.4493 12.3443 0.5040 -2.0337 -12.8639 0.0056 0.4827 1.3264 0.0000 0.0000 0.0000 17.1848 4.6195 -36.4720 -7.2255 -15.5189 49.7220 0.6715 -16.0878 -13.8185 -0.1207 -2.2395 6.1680 -1.0163 -1.9661 1.7637 1.6094 -2.6289 -1.6262 2.3239 -1.2837 -2.5364 -14.4007 -12.8030 -9.2973 12.7429 -17.0440 9.6688 4.5722 -8.0872 6.8058 -0.0000 0.0000 0.0000 -87.9726 -1.7935 39.8097 45.7579 -51.1344 -22.8273 -0.0000 -0.0000 15.2237 14.5533 24.6639 6.1830 -7.1250 0.0000 -0.0000 -15.8357 54.6544 -3.8277 -0.0000 0.0000 0.0000 82.5718 0.9420 43.7589 -59.5434 56.1870 -33.9614 0.0000 0.0000 0.2229 -9.3065 -25.5135 4.0375 7.1250 -0.0000 -0.0000 21.5024 -54.4708 -5.1845
31.9000 17.6868 7.3832 -138.7070 -87.1085 145.9420 0.0000 0.0000 0.0000 -20.1776 -7.0176 -2.0176 0.4611 4.3557 12.0795 0.5211 -2.1484 -13.0665 0.0049 0.4529 1.2444 0.0000 0.0000 0.0000 17.0308 4.9123 -36.7558 -6.5845 -14.9718 47.2848 0.6749 -16.1267 -13.8523 -0.1251 -2.2800 6.2802 -1.0972 -2.0499 1.7305 1.6386 -2.7426 -1.6470 2.4023 -1.3389 -2.5287 -14.3431 -12.7812 -9.4986 12.6909 -16.9896 9.7087 4.5436 -8.0529 6.8350 0.0000 -0.0000 0.0000 -87.5704 -2.2152 40.3515 47.8707 -52.0998 -24.4837 -0.0000 -0.0000 15.1391 14.6568 24.8192 6.2650 -7.1250 0.0000 -0.0000 -15.8125 54.8250 -3.8883 0.0000 -0.0000 0.0000 82.6411 1.0165 43.6263 -62.1391 56.8535 -36.1267 0.0000 -0.0000 -0.1451 -9.0559 -25.4211 3.9140 7.1250 -0.0000 -0.0000 21.6919 -54.3385 -5.1620
31.7883 17.6759 7.3804 -139.9920 -87.1946 147.3450 0.0000 0.0000 0.0000 -20.3420 -6.8437 -1.6347 0.4439 4.2748 11.8510 0.5391 -2.2752 -13.2755 0.0044 0.4281 1.1763 0.0000 0.0000 0.0000 16.8710 5.2066 -36.9840 -5.9305 -14.3607 44.7022 0.6856 -16.1557 -13.7005 -0.1291 -2.3158 6.3791 -1.1833 -2.1300 1.6895 1.6664 -2.8517 -1.6799 2.4819 -1.3915 -2.5288 -14.2837 -12.7646 -9.6943 12.6315 -16.9421 9.7468 4.5118 -8.0225 6.8628 0.0000 -0.0000 0.0000 -87.1684 -2.6306 40.8445 50.0506 -53.0159 -26.2146 -0.0000 -0.0000 15.0710 14.8677 24.7613 6.3447 -7.1250 0.0000 -0.0000 -15.5705 54.8093 -3.8205 0.0000 -0.0000 0.0000 82.7309 1.0873 43.4609 -64.7908 57.4570 -38.3546 0.0000 -0.0000 -0.5811 -8.6925 -25.3829 3.7497 7.1250 -0.0000 -0.0000 22.0230 -54.2357 -5.1903
31.6761 17.6632 7.3768 -141.4060 -87.2927 148.8970 0.0000 0.0000 0.0000 -20.5117 -6.6834 -1.2882 0.4292 4.2044 11.6524 0.5582 -2.4081 -13.4932 0.0038 0.3980 1.0936 0.0000 0.0000 0.0000 16.6966 5.5014 -37.1426 -5.2711 -13.6828 41.9813 0.7021 -16.1635 -13.3557 -0.1347 -2.3660 6.5182 -1.2797 -2.2078 1.6410 1.6934 -2.9579 -1.7211 2.5663 -1.4424 -2.5324 -14.2234 -12.7537 -9.8767 12.5618 -16.9022 9.7800 4.4763 -7.9970 6.8868 -0.0000 -0.0000 0.0000 -86.7722 -3.0461 41.2929 52.2713 -53.8714 -27.9985 -0.0000 -0.0000 15.0333 15.1362 24.4577 6.3901 -7.1250 0.0000 -0.0000 -15.1457 54.5647 -3.6215 -0.0000 -0.0000 0.0000 82.8351 1.1597 43.2699 -67.4885 57.9958 -40.6356 0.0000 -0.0000 -1.0807 -8.3520 -25.3524 3.5970 7.1250 -0.0000 -0.0000 22.3354 -54.1447 -5.2189
31.5628 17.6489 7.3724 -142.6960 -87.4135 150.3380 0.0000 0.0000 0.0000 -20.6821 -6.5450 -0.9634 0.4169 4.1442 11.4828 0.5782 -2.5554 -13.7165 0.0032 0.3626 0.9964 0.0000 0.0000 0.0000 16.5071 5.7969 -37.2124 -4.6117 -12.9327 39.1171 0.7242 -16.1546 -12.8015 -0.1407 -2.4178 6.6618 -1.3851 -2.2869 1.5960 1.7242 -3.0660 -1.7734 2.6600 -1.4939 -2.5483 -14.1645 -12.7486 -10.0409 12.4833 -16.8703 9.8052 4.4383 -7.9768 6.9056 0.0000 0.0000 0.0000 -86.3928 -3.4591 41.7038 54.5236 -54.6646 -29.8270 -0.0000 -0.0000 15.0153 15.3798 24.0860 6.4050 -7.1250 0.0000 -0.0000 -14.7169 54.2471 -3.4005 0.0000 0.0000 0.0000 82.9481 1.2169 43.0527 -70.2219 58.4691 -42.9597 0.0000 -0.0000 -1.6181 -8.0693 -25.3332 3.4715 7.1250 -0.0000 -0.0000 22.5979 -54.0749 -5.2458
31.4480 17.6329 7.3675 -144.0910 -87.5372 151.8960 0.0000 0.0000 0.0000 -20.8476 -6.4001 -0.6563 0.4056 4.0886 11.3262 0.5986 -2.7149 -13.9396 0.0025 0.3217 0.8840 0.0000 0.0000 0.0000 16.2990 6.1331 -37.1855 -3.9646 -12.1132 36.1336 0.7476 -16.1109 -12.0472 -0.1474 -2.4745 6.8190 -1.5011 -2.3624 1.5575 1.7653 -3.1697 -1.8457 2.7709 -1.5424 -2.5870 -14.1295 -12.7422 -10.1620 12.4059 -16.8377 9.8189 4.4068 -7.9589 6.9154 -0.0000 -0.0000 0.0000 -86.0495 -3.8499 42.0668 56.7918 -55.3926 -31.6858 -0.0000 -0.0000 15.0334 15.5048 23.7293 6.3699 -7.1250 0.0000 -0.0000 -14.4197 53.9205 -3.2136 -0.0000 -0.0000 0.0000 83.0518 1.2407 42.8244 -73.0005 58.8794 -45.3334 0.0000 -0.0000 -2.1644 -7.8232 -25.3219 3.3631 7.1250 -0.0000 -0.0000 22.8291 -54.0194 -5.2722
31.3312 17.6154 7.3618 -145.2770 -87.6654 153.2470 0.0000 0.0000 0.0000 -20.9939 -6.2458 -0.3497 0.3946 4.0336 11.1712 0.6189 -2.8889 -14.1571 0.0018 0.2743 0.7537 0.0000 0.0000 0.0000 16.0707 6.5417 -37.0376 -3.3392 -11.2249 33.0421 0.7720 -16.0651 -11.1426 -0.1521 -2.5127 6.9248 -1.6128 -2.4337 1.5263 1.8151 -3.2676 -1.9254 2.8887 -1.5877 -2.6372 -14.1015 -12.7448 -10.2789 12.3187 -16.8155 9.8333 4.3718 -7.9470 6.9259 0.0000 -0.0000 0.0000 -85.7368 -4.2432 42.3938 59.0597 -56.0541 -33.5599 -0.0000 -0.0000 15.0806 15.5244 23.4296 6.3030 -7.1250 0.0000 -0.0000 -14.2587 53.6296 -3.0743 0.0000 -0.0000 0.0000 83.1546 1.2453 42.5752 -75.8358 59.2282 -47.7652 0.0000 -0.0000 -2.6913 -7.6557 -25.3195 3.2901 7.1250 -0.0000 -0.0000 22.9896 -53.9866 -5.2935
